<svg xmlns="http://www.w3.org/2000/svg" xmlns:xlink="http://www.w3.org/1999/xlink" width="463.92" height="427.08" viewBox="0 0 463.92 427.08"><defs><linearGradient id="tailwind-gradient-vue" x1="209.18" y1="87.15" x2="209.18" y2="427.08" gradientUnits="userSpaceOnUse"><stop offset="0.25" stop-color="#06b6d4"/><stop offset="0.64" stop-color="#31b79a"/><stop offset="0.78" stop-color="#41b883"/></linearGradient><linearGradient id="tailwind-gradient-vue-2" x1="201.32" y1="0" x2="201.32" y2="168.78" xlink:href="#tailwind-gradient-vue"/><linearGradient id="tailwind-gradient-vue-3" x1="336.87" y1="126.16" x2="336.87" y2="427.08" xlink:href="#tailwind-gradient-vue"/></defs><title>vitawind_pack</title><g id="圖層_2" data-name="圖層 2"><g id="group"><path d="M247.24,328.51c2.28-4-.34-9.19-4.64-9.19H161.07c-4.29,0-6.91-5.18-4.64-9.17l29.15-51.46c2.28-4-.38-9.19-4.69-9.18q-7.5,0-14.95-.19A464.88,464.88,0,0,1,115,245.06c-8.4-1.18-16.75-2.6-25-4.36-4.14-.88-8.27-1.82-12.37-2.91l-.18,0a2.18,2.18,0,0,1,.52-4.28h.16c6.19-.15,10.16-.09,12.4-.19,8.26-.35,16.5-1,24.7-1.95A404.21,404.21,0,0,0,163.76,223,315,315,0,0,0,210,208.28a220.18,220.18,0,0,0,41-21.53q4.53-3.19,8.71-6.52t7.75-7c2.39-2.4,4.62-4.78,6.79-7.05l3.19-3.35,1.2-1.2c.44-.45.89-.88,1.34-1.31.9-.87,1.85-1.68,2.78-2.51,14.92-13.16,31-24.12,48.14-32a154.53,154.53,0,0,1,26.29-9.26,149.79,149.79,0,0,1,27-4.4,120.72,120.72,0,0,1,27.19,1l2.26.4a3.93,3.93,0,0,0,4.15-5.81L407,89.12a3.93,3.93,0,0,0-3.44-2,196.08,196.08,0,0,0-33.35,3.06l-6.41,1.23c-2.12.43-4.22,1-6.31,1.49l-3.12.76c-1,.27-2.06.6-3.09.89-2.06.61-4.1,1.16-6.12,1.8a175,175,0,0,0-23.45,9.37c-1.88,1-3.74,1.94-5.58,2.94s-3.64,2.13-5.45,3.18-3.57,2.22-5.33,3.35l-2.63,1.7-2.58,1.82c-6.86,4.82-13.41,10-19.78,15.12s-12.57,10.32-18.65,15.33c-3,2.5-6,5-8.91,7.43-1.46,1.2-2.86,2.42-4.19,3.57l-1.92,1.67-.81.73-.3.28-.08.08-4.2,3.35-.22.17-4,2.77c-1.25.85-2.48,1.64-3.71,2.43-2.44,1.59-4.88,3.08-7.33,4.53-4.89,2.91-9.84,5.58-14.86,8.07a217.14,217.14,0,0,1-31.09,12.47,267.32,267.32,0,0,1-32.64,7.95c-11,2.05-22.24,3.47-33.47,4.48a232.17,232.17,0,0,1-34,.62,156.66,156.66,0,0,1-34-5.7,129.93,129.93,0,0,1-16.39-6,110.76,110.76,0,0,1-15.32-8.45c-2.44-1.58-4.77-3.38-7.06-5.14a1.75,1.75,0,0,0-2.8.83,92.36,92.36,0,0,0,8,74.35l68.82,119.2a96.28,96.28,0,0,0,83.4,48.15h24.14a3.92,3.92,0,0,0,3.4-2Z" style="fill:url(#tailwind-gradient-vue)"/><path d="M47.71,165.48c3-.7,7.84-2.06,13.27-3.78,4.37-1.38,8.68-3,13-4.73,2.15-.85,4.28-1.76,6.4-2.7s4.24-1.86,6.35-2.84c4.21-2,8.38-4.08,12.51-6.29,8.27-4.45,16.33-9.51,24.26-14.85s15.68-11,23.45-16.49,15.55-10.93,23.37-16.12c3.91-2.6,7.83-5.14,11.71-7.65l9.84-6.34.18-.13.75-.61c1.22-1,2.46-1.91,3.64-2.78s2.39-1.75,3.58-2.57,2.37-1.64,3.56-2.42A159.69,159.69,0,0,1,218,66.68a163,163,0,0,1,30.35-12.11,191.27,191.27,0,0,1,31.7-6.16,250.17,250.17,0,0,1,31.8-1.61,238.36,238.36,0,0,1,31.18,2.35c2.56.42,5.11.93,7.64,1.4,1.27.24,2.53.46,3.78.75l3.76.94c2.5.66,5,1.19,7.44,2L373,56.57c2.42.74,4.8,1.81,7.17,2.72l3.53,1.43,1.76.71,1.73.81h0a2.06,2.06,0,0,0,2.65-2.9l-7-12.11A94.43,94.43,0,0,0,301,0H163A93.46,93.46,0,0,0,82,46.73Q48.07,105.28,14.36,163.91l-1.7,3a1,1,0,0,0,.58,1.45l1.46.43a1.26,1.26,0,0,0,.27,0C22.62,168.83,35.32,168.44,47.71,165.48Z" style="fill:url(#tailwind-gradient-vue-2)"/><path d="M451,165.27l-21.38-37a4.16,4.16,0,0,0-4.73-1.92l-.44.12c-2,.58-3.9,1.3-5.82,2s-3.82,1.44-5.7,2.25a212.72,212.72,0,0,0-21.75,10.82,275.48,275.48,0,0,0-38.89,26.89c-3.65,3-9.22,8.05-13,11.53a44,44,0,0,0-7.74,9.48l-.05.08c-1.51,2.53-3,5-3.32,5.63l-.14.25-26.29,53.5c-2,4,.67,8.85,4.81,8.85h41.31c4.89,0,7.32,6.51,3.84,10.28L210.94,420.1a4.15,4.15,0,0,0,3.05,7h85.84a96.56,96.56,0,0,0,83.61-48.26l67.55-117A96.57,96.57,0,0,0,451,165.27Z" style="fill:url(#tailwind-gradient-vue-3)"/></g></g></svg>