<svg xmlns="http://www.w3.org/2000/svg" xmlns:xlink="http://www.w3.org/1999/xlink" viewBox="0 0 425.2 425.2"><defs><linearGradient id="tailwind-gradient-vue" x1="248.06" y1="19.27" x2="248.06" y2="405.29" gradientUnits="userSpaceOnUse"><stop offset="0.25" stop-color="#06b6d4"/><stop offset="0.64" stop-color="#31b79a"/><stop offset="0.78" stop-color="#41b883"/></linearGradient><linearGradient id="tailwind-gradient-vue-2" x1="207.07" y1="19.27" x2="207.07" y2="405.29" xlink:href="#tailwind-gradient-vue"/></defs><g><path d="M416.62,93a44,44,0,0,0-6-2.48,75.12,75.12,0,0,0-12.5-3,113.1,113.1,0,0,0-25.47-1,139.93,139.93,0,0,0-25.33,4.12,144.59,144.59,0,0,0-24.63,8.67,186.81,186.81,0,0,0-45.1,30c-.87.77-1.76,1.54-2.6,2.35-.43.4-.85.8-1.26,1.22L272.59,134l-3,3.14c-2,2.13-4.13,4.36-6.37,6.61s-4.68,4.41-7.25,6.52-5.34,4.11-8.17,6.1a206.1,206.1,0,0,1-38.4,20.18,295.9,295.9,0,0,1-43.33,13.77,380.32,380.32,0,0,1-45.5,7.83c-7.68.85-15.4,1.49-23.14,1.82q-5.81.25-11.61.18a89.62,89.62,0,0,1-11.58-.78L74,200.55a94.13,94.13,0,0,0,11.38,3.65c3.84,1,7.71,1.9,11.59,2.72,7.77,1.65,15.6,3,23.46,4.09a438.87,438.87,0,0,0,47.7,4c4.66.13,9.33.2,14,.18,4,0,6.52,4.83,4.39,8.59L159.22,272c-2.13,3.74.33,8.59,4.35,8.59H240c4,0,6.48,4.86,4.35,8.61L183.76,395.31c-1.73,3,1.94,6.27,4.26,3.75L342.17,232.48c3.27-3.53,1-9.63-3.6-9.63h-38.7c-3.88,0-6.35-4.55-4.51-8.3l24.7-50.24s1.56-2.68,3.18-5.38l0-.08a40.87,40.87,0,0,1,7.25-8.88c3.55-3.26,8.76-8,12.19-10.8A257.41,257.41,0,0,1,379.15,114a199.3,199.3,0,0,1,20.38-10.14q2.64-1.14,5.34-2.1c1.8-.64,3.61-1.32,5.46-1.86a44.72,44.72,0,0,1,11.43-2.15l.37-1.14A26.13,26.13,0,0,0,416.62,93Z" fill="url(#tailwind-gradient-vue)"/><path d="M119.44,177.38c10.52-.95,21-2.28,31.35-4.2a249.84,249.84,0,0,0,30.59-7.45,203.18,203.18,0,0,0,29.12-11.68c4.71-2.33,9.34-4.84,13.93-7.56,2.29-1.36,4.58-2.75,6.87-4.24,1.15-.75,2.3-1.48,3.47-2.28l3.88-2.67,4-3.22.07-.08.28-.26.77-.69,1.79-1.56c1.25-1.07,2.56-2.22,3.93-3.35,2.7-2.27,5.5-4.62,8.35-6.95,5.69-4.7,11.51-9.54,17.47-14.37s12.1-9.65,18.53-14.17L296.3,91l2.46-1.59c1.65-1.06,3.31-2.18,5-3.14s3.38-2,5.11-3,3.46-1.85,5.22-2.75a163.12,163.12,0,0,1,22-8.79c1.9-.6,3.81-1.11,5.73-1.68,1-.27,1.93-.58,2.9-.84l2.92-.71c2-.45,3.93-1,5.92-1.39l6-1.15c16.15-3,33.17-3.44,51.15-2.36l.4-1.13c-1.79-1.5-3.61-3-5.44-4.44s-3.7-2.94-5.64-4.23l-5.87-3.94c-2-1.35-4-2.43-6.06-3.62-4.09-2.4-8.33-4.5-12.66-6.49L373.79,39l-1.65-.67L368.83,37c-2.22-.86-4.44-1.86-6.71-2.56l-6.86-2.2c-2.3-.73-4.63-1.23-7-1.85l-3.52-.88c-1.18-.27-2.36-.48-3.55-.71-2.37-.43-4.76-.91-7.15-1.3a220.82,220.82,0,0,0-29.21-2.2,235.22,235.22,0,0,0-29.8,1.5,179.91,179.91,0,0,0-29.7,5.77,152.83,152.83,0,0,0-28.44,11.35,150.12,150.12,0,0,0-13.55,8c-1.12.73-2.22,1.48-3.34,2.27s-2.22,1.56-3.35,2.41-2.27,1.69-3.42,2.6l-.78.64-9.31,6c-3.63,2.35-7.31,4.73-11,7.17-7.34,4.86-14.62,9.94-21.9,15.1s-14.56,10.45-22,15.45-15,9.74-22.72,13.91c-3.87,2.07-7.78,4-11.73,5.89-2,.92-3.95,1.8-5.94,2.67s-4,1.72-6,2.52c-4,1.6-8.06,3.14-12.16,4.44s-8.24,2.53-12.43,3.54c-16.76,4-34.5,5-53.66-1l-.64,1c1.48,2.21,3.07,4.39,4.78,6.47.85,1.06,1.75,2,2.67,3s1.84,2,2.82,2.94c1.92,1.93,4,3.68,6.08,5.44s4.32,3.34,6.61,4.82A103.7,103.7,0,0,0,40.37,167a122,122,0,0,0,15.36,5.58A146.9,146.9,0,0,0,87.58,178,216.94,216.94,0,0,0,119.44,177.38Z" fill="url(#tailwind-gradient-vue-2)"/></g></svg>